<svg width="596" height="336" viewBox="0 0 596 336" fill="none" xmlns="http://www.w3.org/2000/svg">
<g clip-path="url(#clip0)">
<path d="M578.268 24.3539V290.435C578.268 293.672 577.731 296.876 576.689 299.866C575.646 302.856 574.118 305.572 572.192 307.861C570.266 310.149 567.979 311.964 565.463 313.203C562.946 314.441 560.249 315.078 557.525 315.078H84.5938C79.0924 315.078 73.8162 312.482 69.9261 307.861C66.036 303.239 63.8506 296.971 63.8506 290.435V24.3539C63.918 17.8696 66.1327 11.6779 70.0152 7.11964C73.8977 2.56137 79.1353 0.00350874 84.5938 0H557.525C562.983 0.00350874 568.221 2.56137 572.103 7.11964C575.986 11.6779 578.2 17.8696 578.268 24.3539V24.3539Z" fill="#F2F2F2"/>
<path opacity="0.3" d="M184.018 57.8405H103.197C100.833 57.8425 98.5669 58.9595 96.896 60.9461C95.225 62.9326 94.2864 65.6261 94.2864 68.4344V198.705C94.2881 201.513 95.2283 204.206 96.9005 206.191C98.5726 208.176 100.84 209.291 103.204 209.291H184.018C185.189 209.292 186.349 209.019 187.431 208.488C188.513 207.956 189.497 207.177 190.325 206.194C191.154 205.211 191.812 204.043 192.26 202.758C192.709 201.474 192.941 200.096 192.942 198.705V68.4344C192.942 67.0426 192.711 65.6644 192.262 64.3785C191.814 63.0927 191.156 61.9245 190.328 60.9407C189.499 59.9569 188.515 59.1767 187.432 58.6447C186.35 58.1128 185.189 57.8395 184.018 57.8405Z" fill="#3CBAB0"/>
<path d="M578.268 24.3539H63.8506C63.918 17.8696 66.1327 11.6779 70.0152 7.11964C73.8977 2.56137 79.1353 0.00350874 84.5938 0H557.525C562.983 0.00350874 568.221 2.56137 572.103 7.11964C575.986 11.6779 578.2 17.8696 578.268 24.3539V24.3539Z" fill="#E6E6E6"/>
<path d="M83.7097 17.5043C86.1863 17.5043 88.194 15.1192 88.194 12.1769C88.194 9.23468 86.1863 6.84952 83.7097 6.84952C81.233 6.84952 79.2253 9.23468 79.2253 12.1769C79.2253 15.1192 81.233 17.5043 83.7097 17.5043Z" fill="#F2F2F2"/>
<path d="M97.1628 17.5043C99.6394 17.5043 101.647 15.1192 101.647 12.1769C101.647 9.23468 99.6394 6.84952 97.1628 6.84952C94.6862 6.84952 92.6785 9.23468 92.6785 12.1769C92.6785 15.1192 94.6862 17.5043 97.1628 17.5043Z" fill="#F2F2F2"/>
<path d="M110.616 17.5043C113.092 17.5043 115.1 15.1192 115.1 12.1769C115.1 9.23468 113.092 6.84952 110.616 6.84952C108.139 6.84952 106.131 9.23468 106.131 12.1769C106.131 15.1192 108.139 17.5043 110.616 17.5043Z" fill="#F2F2F2"/>
<path d="M331.476 49.4688H232.487C230.633 49.4688 229.13 51.2543 229.13 53.4568V70.5958C229.13 72.7983 230.633 74.5838 232.487 74.5838H331.476C333.33 74.5838 334.832 72.7983 334.832 70.5958V53.4568C334.832 51.2543 333.33 49.4688 331.476 49.4688Z" fill="#E6E6E6"/>
<path d="M542.88 49.4688H443.892C442.038 49.4688 440.535 51.2543 440.535 53.4568V70.5958C440.535 72.7983 442.038 74.5838 443.892 74.5838H542.88C544.734 74.5838 546.237 72.7983 546.237 70.5958V53.4568C546.237 51.2543 544.734 49.4688 542.88 49.4688Z" fill="#E6E6E6"/>
<path d="M541.746 99.6988H233.621C231.141 99.6988 229.13 102.087 229.13 105.034V257.23C229.13 260.177 231.141 262.565 233.621 262.565H541.746C544.226 262.565 546.237 260.177 546.237 257.23V105.034C546.237 102.087 544.226 99.6988 541.746 99.6988Z" fill="#E6E6E6"/>
<path d="M519.318 118.725H256.049C255.511 118.725 255.075 119.243 255.075 119.882V125.179C255.075 125.818 255.511 126.336 256.049 126.336H519.318C519.856 126.336 520.292 125.818 520.292 125.179V119.882C520.292 119.243 519.856 118.725 519.318 118.725Z" fill="#F2F2F2"/>
<path d="M519.318 140.035H256.049C255.511 140.035 255.075 140.553 255.075 141.192V146.489C255.075 147.128 255.511 147.645 256.049 147.645H519.318C519.856 147.645 520.292 147.128 520.292 146.489V141.192C520.292 140.553 519.856 140.035 519.318 140.035Z" fill="#F2F2F2"/>
<path d="M519.318 161.345H256.049C255.511 161.345 255.075 161.862 255.075 162.501V167.798C255.075 168.437 255.511 168.955 256.049 168.955H519.318C519.856 168.955 520.292 168.437 520.292 167.798V162.501C520.292 161.862 519.856 161.345 519.318 161.345Z" fill="#F2F2F2"/>
<path d="M519.318 182.654H256.049C255.511 182.654 255.075 183.172 255.075 183.811V189.108C255.075 189.747 255.511 190.265 256.049 190.265H519.318C519.856 190.265 520.292 189.747 520.292 189.108V183.811C520.292 183.172 519.856 182.654 519.318 182.654Z" fill="#F2F2F2"/>
<path d="M519.318 203.964H256.049C255.511 203.964 255.075 204.482 255.075 205.121V210.418C255.075 211.057 255.511 211.574 256.049 211.574H519.318C519.856 211.574 520.292 211.057 520.292 210.418V205.121C520.292 204.482 519.856 203.964 519.318 203.964Z" fill="#F2F2F2"/>
<path d="M519.318 225.274H256.049C255.511 225.274 255.075 225.791 255.075 226.43V231.727C255.075 232.366 255.511 232.884 256.049 232.884H519.318C519.856 232.884 520.292 232.366 520.292 231.727V226.43C520.292 225.791 519.856 225.274 519.318 225.274Z" fill="#F2F2F2"/>
<path d="M100.564 155.56C97.2908 157.037 89.6738 157.204 86.2721 157.197C85.2471 157.197 84.6065 157.197 84.6065 157.197L82.4348 151.945L84.6065 147.562C84.6065 147.562 86.5988 146.915 89.2446 146.344C93.1524 145.507 98.4951 144.822 101.045 146.732C105.318 149.868 104.837 153.635 100.564 155.56Z" fill="#FEC2BE"/>
<path opacity="0.1" d="M86.2721 157.197C85.2471 157.197 84.6065 157.197 84.6065 157.197L82.4348 151.945L84.6065 147.562C84.6065 147.562 86.5988 146.915 89.2446 146.344C87.0985 148.216 81.9351 152.28 86.2721 157.197Z" fill="black"/>
<path d="M50.3013 92.697L51.2622 91.3804C51.2622 91.3804 56.195 100.665 56.7139 104.166C57.2328 107.667 57.8927 111.693 57.8927 111.693C57.8927 111.693 59.1739 116.259 59.9554 118.261C60.737 120.263 61.5057 122.203 61.5762 123.078C61.6467 123.954 61.2815 125.879 62.8575 127.104C64.4334 128.33 64.7793 131.671 64.7793 131.671C64.7793 131.671 70.3783 138.155 73.3252 138.33C76.272 138.505 84.7538 140.256 84.4591 142.006C84.1645 143.756 87.9953 144.807 89.5392 145.241C91.0831 145.674 79.5904 150.933 86.2977 157.676C86.2977 157.676 82.0248 158.726 81.5828 159.959C81.1407 161.192 76.6436 159.259 76.6436 159.259C76.6436 159.259 75.689 156.55 72.3706 156.375C69.0522 156.2 67.361 154.442 67.361 154.183C67.361 153.924 64.0426 151.732 62.1976 151.139C60.3526 150.545 57.9247 150.264 57.8478 149.655C57.7709 149.046 46.7971 92.7427 46.7971 92.7427L50.3013 92.697Z" fill="#4C4981"/>
<path d="M50.3013 92.697L51.2622 91.3804C51.2622 91.3804 56.195 100.665 56.7139 104.166C57.2328 107.667 57.8927 111.693 57.8927 111.693C57.8927 111.693 59.1739 116.259 59.9554 118.261C60.737 120.263 61.5057 122.203 61.5762 123.078C61.6467 123.954 61.2815 125.879 62.8575 127.104C64.4334 128.33 64.7793 131.671 64.7793 131.671C64.7793 131.671 70.3783 138.155 73.3252 138.33C76.272 138.505 84.7538 140.256 84.4591 142.006C84.1645 143.756 87.9953 144.807 89.5392 145.241C91.0831 145.674 79.5904 150.933 86.2977 157.676C86.2977 157.676 82.0248 158.726 81.5828 159.959C81.1407 161.192 76.6436 159.259 76.6436 159.259C76.6436 159.259 75.689 156.55 72.3706 156.375C69.0522 156.2 67.361 154.442 67.361 154.183C67.361 153.924 64.0426 151.732 62.1976 151.139C60.3526 150.545 57.9247 150.264 57.8478 149.655C57.7709 149.046 46.7971 92.7427 46.7971 92.7427L50.3013 92.697Z" fill="#373C3F"/>
<path d="M38.8216 335.665C29.097 337.834 27.3225 328.968 27.3225 328.968C27.3225 328.968 26.1117 321.083 25.6697 320.497C25.6128 320.384 25.5765 320.257 25.5633 320.126C25.55 319.995 25.5601 319.862 25.5928 319.736C25.855 318.399 26.3408 317.139 27.0214 316.03C27.63 315.177 27.1303 311.631 27.1303 311.631L38.4052 308.214C38.8851 309.48 39.2564 310.801 39.5135 312.156C39.6224 313.404 41.2816 319.051 41.115 319.835C40.9485 320.619 41.8325 323.054 41.9414 324.303C42.0503 325.551 43.4341 327.392 43.5494 328.047C43.7332 328.638 43.9471 329.215 44.19 329.775C44.4881 330.641 44.728 331.534 44.9075 332.446C45.4008 335.201 38.8216 335.665 38.8216 335.665Z" fill="#D0CDE1"/>
<path opacity="0.1" d="M38.8216 335.665C29.097 337.834 27.3225 328.968 27.3225 328.968C27.3225 328.968 26.1117 321.083 25.6697 320.497C25.6128 320.384 25.5765 320.258 25.5633 320.126C25.55 319.995 25.5601 319.862 25.5928 319.736L27.9311 327.712C27.9311 327.712 29.8529 332.507 37.0535 331.784C41.1406 331.373 43.1586 330.475 44.1323 329.767C44.4304 330.633 44.6703 331.527 44.8498 332.438C45.4008 335.201 38.8216 335.665 38.8216 335.665Z" fill="black"/>
<path opacity="0.1" d="M31.2495 323.184C31.2495 323.184 33.6839 323.252 33.8504 320.901L31.2495 323.184Z" fill="black"/>
<path d="M73.5366 245.571C72.3194 247.732 70.9357 257.192 70.9357 257.192C70.4067 258.438 70.1054 259.802 70.0516 261.196C70.1093 263.037 69.1676 266.386 69.1676 266.386L66.099 279.978C66.099 279.978 66.4321 283.593 65.2726 286.151C64.1131 288.708 64.222 287.924 64.7729 292.391C65.3238 296.859 64.1323 300.991 62.1207 302.285C60.1092 303.579 63.0048 306.684 63.0048 306.684C63.0048 306.684 50.2885 310.756 47.6299 308.259C44.9714 305.763 49.0137 293.419 49.0137 293.419C49.0137 293.419 48.3731 283.038 48.7895 281.531C49.2059 280.024 51.1149 267.147 51.1149 267.147C51.1149 267.147 52.2744 261.302 51.8324 260.297C51.3904 259.293 52.1079 256.492 52.1079 256.492C52.1079 256.492 53.9849 253.334 53.8183 252.352C53.6518 251.37 54.3757 249.597 54.3757 249.597C54.3757 249.597 48.7382 239.353 49.2507 237.42C49.7632 235.487 49.0329 232.435 49.0329 232.435C49.0329 232.435 48.3218 230.981 47.4634 229.246C46.4128 227.115 45.1443 224.558 44.7215 223.767C44.177 222.747 42.8701 218.439 42.1591 215.958C41.8516 214.9 41.6466 214.177 41.6466 214.177C41.6466 214.177 40.7561 233.485 39.9874 235.487C39.2186 237.488 38.0655 252.991 38.0655 252.991C37.6356 254.378 37.446 255.853 37.5082 257.329C37.6235 259.757 35.7401 270.328 35.7401 270.328C35.7401 270.328 34.9136 277.817 35.4646 279.788C36.0155 281.759 35.5735 296.265 35.5735 296.265C35.5735 296.265 38.6164 299.089 39.4172 301.258C40.218 303.427 39.3083 309.333 39.3083 309.333C39.3083 309.333 30.4614 314.591 26.5344 313.214C22.6074 311.836 24.2153 303.883 24.2153 303.883C24.2153 303.883 21.5631 298.632 21.5631 296.6C21.3672 293.823 21.0529 291.059 20.6214 288.32C17.2518 280.968 18.5779 263.106 18.0269 261.683C17.476 260.259 19.1865 254.833 20.5894 252.428C21.9924 250.023 21.4222 243.432 20.5894 241.522C19.7566 239.612 21.4222 233.052 21.4222 233.052C21.4222 233.052 19.8207 220.311 19.8719 218.34C19.9232 216.369 18.4946 210.532 18.4946 210.532C18.4946 210.532 17.0532 207.488 17.3863 206.59C17.7194 205.691 16.278 203.309 16.6688 202.259C17.0596 201.209 16.3357 197.99 15.6182 196.079C15.0827 194.108 14.6883 192.087 14.4395 190.036C14.0999 187.753 13.8501 185.775 13.8501 185.775L22.9725 177.038L45.5992 169.983L54.1707 166.702L62.4987 182.327C62.4987 182.327 63.3571 183.963 64.1195 185.851C64.7601 187.472 65.3623 189.283 65.2598 190.417C65.1218 191.839 65.3951 193.275 66.0349 194.489C66.0349 194.489 71.0125 213.203 70.8972 218.584C70.7819 223.964 72.6653 235.791 72.6653 235.791C72.6653 235.791 74.7538 243.402 73.5366 245.571Z" fill="#373C3F"/>
<path d="M39.8657 93.3515C39.5133 93.1765 15.4645 81.3801 18.7765 79.036C20.7432 77.6433 23.1647 71.7451 24.8175 67.1254C25.977 63.9062 26.7394 61.3033 26.7394 61.3033C26.7394 61.3033 46.0412 57.2317 39.1353 71.2884C38.0455 73.4418 37.2254 75.7723 36.701 78.2065C34.7471 87.7806 39.6991 93.1765 39.8657 93.3515Z" fill="#FEC2BE"/>
<path opacity="0.1" d="M39.1547 71.2884C38.0648 73.4418 37.2447 75.7723 36.7203 78.2065C34.2708 78.0072 31.9139 77.0154 29.905 75.3385C27.8961 73.6615 26.3118 71.3634 25.3237 68.6932C25.1313 68.1819 24.9624 67.6585 24.8176 67.1254C25.9771 63.9062 26.7395 61.3033 26.7395 61.3033C26.7395 61.3033 46.0606 57.2317 39.1547 71.2884Z" fill="black"/>
<path d="M51.1471 61.6991C51.1479 65.3746 50.0849 68.9388 48.1362 71.7936C46.1875 74.6485 43.4718 76.6205 40.4444 77.3789C37.4171 78.1373 34.2623 77.6359 31.5093 75.9588C28.7562 74.2818 26.5723 71.5311 25.3238 68.1681C24.5627 66.1316 24.172 63.9272 24.1771 61.6991C24.1752 57.8368 25.3479 54.1037 27.4793 51.1872C29.6107 48.2707 32.5572 46.3672 35.7763 45.8271C38.9954 45.287 42.2704 46.1467 44.9983 48.2478C47.7262 50.349 49.7232 53.5502 50.6218 57.2621C50.9732 58.704 51.1501 60.198 51.1471 61.6991V61.6991Z" fill="#FEC2BE"/>
<path opacity="0.1" d="M64.1773 185.851C62.768 187.373 62.2235 190.28 62.2235 190.28C62.2235 190.28 55.593 195.661 56.0351 192.244C56.4771 188.826 52.6078 175.044 52.6078 175.044L53.0498 193.819C53.0498 193.819 31.8197 192.639 30.2758 190.775C28.7319 188.91 19.6607 185.386 19.6607 185.386C19.6607 185.386 16.8868 188.035 14.3372 190.044C13.9976 187.761 13.7478 185.782 13.7478 185.782L22.8702 177.045L45.5994 169.983L54.1709 166.702L62.4989 182.327C62.4989 182.327 63.3958 183.986 64.1773 185.851Z" fill="black"/>
<path d="M64.8562 184.367C63.0881 185.683 62.4219 189.222 62.4219 189.222C62.4219 189.222 55.7915 194.61 56.2335 191.193C56.6755 187.776 52.8062 173.993 52.8062 173.993L53.2482 192.769C53.2482 192.769 32.0245 191.589 30.4742 189.724C28.9239 187.86 19.8655 184.344 19.8655 184.344C19.8655 184.344 12.0115 191.833 10.5766 191.193C9.14157 190.554 13.139 177.799 13.139 177.799L17.2262 103.215C17.2262 103.215 16.1243 81.0224 17.7835 80.2309C18.0383 80.1088 18.2726 79.9335 18.4754 79.7133C19.5709 78.5489 19.8976 76.182 19.9937 74.1881C20.1026 71.8288 22.7547 73.0084 22.7547 73.0084L21.2108 75.3753L34.9073 85.2691L35.029 85.3528C35.563 85.0211 36.1127 84.7263 36.6754 84.47C37.8862 83.9144 39.5005 83.3893 40.5575 83.9068C41.1434 84.2559 41.6424 84.7805 42.0053 85.4289C42.787 86.824 43.4135 88.3332 43.8695 89.9191L48.8023 99.9195C48.8023 99.9195 51.3648 113.185 51.3648 113.71C51.3648 114.235 52.1399 126.313 53.024 127.63C53.908 128.946 54.7921 135.507 54.459 137.478C54.1259 139.449 55.0099 146.808 55.0099 146.808C58.6614 150.347 60.5385 162.433 60.5385 162.433C60.5385 162.433 66.304 175.964 66.7268 177.54C67.1496 179.115 66.6243 183.05 64.8562 184.367Z" fill="#D0CDE1"/>
<path opacity="0.1" d="M34.8882 85.8094C33.5429 88.1763 29.6671 91.5021 29.6671 91.5021L18.4563 80.2537C19.5518 79.0893 19.8785 76.7224 19.9746 74.736C20.0835 72.3691 22.7356 73.5488 22.7356 73.5488L22.4153 74.0434C22.2614 74.2788 22.1511 74.5502 22.0916 74.8398C22.0322 75.1294 22.0249 75.4306 22.0702 75.7238C22.1156 76.017 22.2126 76.2955 22.3549 76.541C22.4971 76.7865 22.6815 76.9936 22.8958 77.1485L34.8882 85.8094Z" fill="black"/>
<path d="M34.8882 85.2538C33.5429 87.6207 29.6671 90.9389 29.6671 90.9389L18.4563 79.7209C19.5518 78.5565 19.8785 76.1896 19.9746 74.1956C20.0835 71.8364 22.7356 73.016 22.7356 73.016L22.4153 73.5107C22.2614 73.7461 22.1511 74.0175 22.0916 74.3071C22.0322 74.5967 22.0249 74.8979 22.0702 75.1911C22.1156 75.4843 22.2126 75.7627 22.3549 76.0082C22.4971 76.2538 22.6815 76.4608 22.8958 76.6158L34.8882 85.2538Z" fill="#D0CDE1"/>
<path opacity="0.1" d="M40.0707 87.0271C38.6229 89.082 36.573 91.4108 36.6691 90.2464C36.7651 89.082 35.4455 86.4944 34.5999 85.3376C35.9133 84.8429 37.3291 84.8911 38.6165 85.4746C39.2114 85.8248 39.7143 86.3617 40.0707 87.0271V87.0271Z" fill="#D0CDE1"/>
<path d="M40.2884 86.2356C38.8406 88.2905 36.7906 90.6269 36.8867 89.4549C36.9828 88.2829 35.7976 86.4106 34.9648 85.2386C36.1756 84.683 37.79 84.1655 38.847 84.683C39.4348 85.0396 39.9323 85.5754 40.2884 86.2356V86.2356Z" fill="white"/>
<path d="M36.6626 97.1568C37.1509 97.1568 37.5467 96.6866 37.5467 96.1065C37.5467 95.5265 37.1509 95.0563 36.6626 95.0563C36.1744 95.0563 35.7786 95.5265 35.7786 96.1065C35.7786 96.6866 36.1744 97.1568 36.6626 97.1568Z" fill="#192534"/>
<path d="M43.3699 125.529C43.8581 125.529 44.254 125.059 44.254 124.479C44.254 123.899 43.8581 123.429 43.3699 123.429C42.8816 123.429 42.4858 123.899 42.4858 124.479C42.4858 125.059 42.8816 125.529 43.3699 125.529Z" fill="#192534"/>
<path d="M50.9612 154.244C51.4495 154.244 51.8453 153.774 51.8453 153.194C51.8453 152.614 51.4495 152.143 50.9612 152.143C50.473 152.143 50.0771 152.614 50.0771 153.194C50.0771 153.774 50.473 154.244 50.9612 154.244Z" fill="#192534"/>
<path d="M51.1856 185.501C51.6738 185.501 52.0696 185.03 52.0696 184.45C52.0696 183.87 51.6738 183.4 51.1856 183.4C50.6973 183.4 50.3015 183.87 50.3015 184.45C50.3015 185.03 50.6973 185.501 51.1856 185.501Z" fill="#192534"/>
<path d="M40.5703 110.551C41.0586 110.551 41.4544 110.081 41.4544 109.501C41.4544 108.921 41.0586 108.451 40.5703 108.451C40.0821 108.451 39.6863 108.921 39.6863 109.501C39.6863 110.081 40.0821 110.551 40.5703 110.551Z" fill="#192534"/>
<path d="M46.541 139.708C47.0293 139.708 47.4251 139.237 47.4251 138.657C47.4251 138.077 47.0293 137.607 46.541 137.607C46.0528 137.607 45.657 138.077 45.657 138.657C45.657 139.237 46.0528 139.708 46.541 139.708Z" fill="#192534"/>
<path d="M52.3643 168.339C52.8525 168.339 53.2483 167.868 53.2483 167.288C53.2483 166.708 52.8525 166.238 52.3643 166.238C51.876 166.238 51.4802 166.708 51.4802 167.288C51.4802 167.868 51.876 168.339 52.3643 168.339Z" fill="#192534"/>
<path d="M51.0381 189.001C51.5264 189.001 51.9222 188.531 51.9222 187.951C51.9222 187.371 51.5264 186.901 51.0381 186.901C50.5499 186.901 50.1541 187.371 50.1541 187.951C50.1541 188.531 50.5499 189.001 51.0381 189.001Z" fill="#192534"/>
<path opacity="0.1" d="M18.4627 80.3526C18.4627 80.3526 18.6101 78.7696 16.6946 81.4866C14.7792 84.2036 11.1661 86.5629 11.1661 86.5629C11.1661 86.5629 2.98538 93.4124 2.54335 96.548C2.10133 99.6835 -0.550832 113.36 0.845717 117.911C2.24227 122.462 12.9278 144.266 12.9278 144.266C12.9278 144.266 10.1283 148.209 10.7945 152.844C11.4608 157.478 12.268 163.879 11.8964 165.279C11.5248 166.68 12.3384 170.18 11.0892 171.406C9.84001 172.631 8.52674 174.732 12.4153 177.54C12.4153 177.54 13.152 179.899 12.4858 180.424C11.8195 180.949 22.2872 186.383 26.4128 183.469C30.5384 180.554 37.9888 157.463 38.1362 152.265C38.2835 147.067 35.8491 130.027 34.5231 126.001C33.197 121.975 29.2187 106.297 27.5211 102.796C25.8235 99.2954 18.4627 80.3526 18.4627 80.3526Z" fill="black"/>
<path d="M18.0526 80.3526C18.0526 80.3526 18.1999 78.7696 16.2845 81.4866C14.369 84.2036 10.7559 86.5629 10.7559 86.5629C10.7559 86.5629 2.57523 93.4124 2.1332 96.548C1.69117 99.6835 -0.960989 113.36 0.435561 117.911C1.83211 122.462 12.524 144.266 12.524 144.266C12.524 144.266 9.72454 148.216 10.3652 152.844C11.0058 157.471 11.845 163.879 11.4734 165.279C11.1019 166.68 11.9155 170.18 10.6662 171.406C9.41704 172.631 8.10377 174.732 11.9923 177.54C11.9923 177.54 12.729 179.899 12.0628 180.424C11.3966 180.949 21.8643 186.383 25.9899 183.469C30.1154 180.554 37.5658 157.463 37.7132 152.265C37.8605 147.067 35.4262 130.027 34.1001 126.001C32.774 121.975 28.783 106.358 27.0853 102.85C25.3877 99.3411 18.0526 80.3526 18.0526 80.3526Z" fill="#373C3F"/>
<path opacity="0.1" d="M15.0737 95.2313C15.0737 95.2313 21.4094 103.55 21.1916 109.067C21.1916 109.067 21.2557 100.14 15.0737 95.2313Z" fill="black"/>
<path opacity="0.1" d="M23.8184 108.892C23.8184 109.159 28.0913 128.071 27.8735 130.43C27.6557 132.79 29.1227 139.799 29.1227 139.799L31.115 139.19C31.115 139.19 29.5647 129.471 29.27 125.879C28.9753 122.287 23.8184 108.892 23.8184 108.892Z" fill="black"/>
<path opacity="0.1" d="M25.5352 162.829C25.3879 163.087 15.4391 176.49 18.2386 177.449C21.0381 178.407 25.5352 162.829 25.5352 162.829Z" fill="black"/>
<path opacity="0.1" d="M17.3545 159.411C17.1366 159.586 13.3762 169.046 12.9342 166.505C12.4921 163.963 16.1757 173.423 16.7779 166.421L17.3545 159.411Z" fill="black"/>
<path opacity="0.1" d="M36.4641 83.3284C36.4641 83.3284 40.5705 80.3526 45.7339 87.9632C45.7339 87.9632 49.4879 90.5052 50.5962 91.1216C51.7044 91.7381 52.9536 108.017 52.9536 108.017C52.9536 108.017 55.388 115.019 54.7218 119.052C54.0555 123.086 56.6436 136.907 56.6436 136.907C56.6436 136.907 60.9229 161.778 60.7756 162.479C60.6283 163.179 56.4194 154.685 56.4899 150.499C56.5603 146.314 52.9536 133.163 52.4411 132.371C51.9286 131.58 48.386 109.083 48.386 109.083C48.386 109.083 45.5096 99.5085 43.6775 96.3729C41.8453 93.2374 39.5455 87.2402 38.591 86.2128C37.9013 85.505 37.1315 84.9158 36.304 84.4624L36.4641 83.3284Z" fill="black"/>
<path d="M36.4064 83.3284C36.4064 83.3284 41.0125 80.3526 46.1759 87.9632C46.1759 87.9632 49.9299 90.5052 51.0382 91.1216C52.1465 91.7381 53.3957 108.017 53.3957 108.017C53.3957 108.017 55.83 115.019 55.1638 119.052C54.4975 123.086 57.0856 136.907 57.0856 136.907C57.0856 136.907 61.365 161.778 61.2176 162.479C61.0703 163.179 56.8678 154.685 56.9383 150.484C57.0088 146.283 53.4021 133.147 52.8896 132.356C52.3771 131.564 48.8345 109.067 48.8345 109.067C48.8345 109.067 45.9581 99.5237 44.1195 96.3729C42.2809 93.2221 39.9875 87.2402 39.033 86.2128C38.2141 85.4484 37.2911 84.8564 36.304 84.4624L36.4064 83.3284Z" fill="#373C3F"/>
<path opacity="0.1" d="M50.5383 203.933C49.2571 207.267 48.1616 224.003 47.4249 229.315C46.3743 227.184 45.1059 224.627 44.6831 223.835C44.1386 222.815 42.8317 218.508 42.1206 216.027C42.9534 213.622 45.2532 206.726 45.2532 204.2C45.2532 201.11 49.4557 197.236 49.4557 197.236C50.2094 198.073 50.7202 199.172 50.9147 200.375C51.1093 201.579 50.9775 202.825 50.5383 203.933V203.933Z" fill="black"/>
<path opacity="0.1" d="M22.3513 255.351C22.3513 255.351 32.0759 250.426 34.9523 253.905C37.8287 257.383 22.3513 255.351 22.3513 255.351Z" fill="black"/>
<path opacity="0.1" d="M27.822 257.322C27.822 257.322 17.9821 263.89 21.3582 265.008C24.7342 266.127 27.822 257.322 27.822 257.322Z" fill="black"/>
<path opacity="0.1" d="M57.2265 251.606C57.2265 251.606 53.0305 251.941 54.632 252.923C56.2336 253.905 57.2265 251.606 57.2265 251.606Z" fill="black"/>
<path opacity="0.1" d="M62.4796 253.121C62.422 253.448 50.263 258.113 52.6397 260.214C55.0164 262.314 62.4796 253.121 62.4796 253.121Z" fill="black"/>
<path opacity="0.1" d="M23.8184 293.312C25.6441 292.977 35.8172 287.399 31.8325 291.402C30.7689 292.555 29.4608 293.343 28.0487 293.679C26.6367 294.016 25.1742 293.889 23.8184 293.312V293.312Z" fill="black"/>
<path opacity="0.1" d="M28.8149 297.711C28.8149 297.711 29.699 301.783 33.0751 301.258C36.4511 300.733 28.8149 297.711 28.8149 297.711Z" fill="black"/>
<path opacity="0.1" d="M25.9963 305.984C26.6049 305.786 33.8503 301.844 34.0105 303.701C34.1706 305.558 27.1046 308.754 26.5537 307.772C26.2328 307.249 26.0399 306.63 25.9963 305.984Z" fill="black"/>
<path opacity="0.1" d="M49.4431 301.258C50.3272 301.189 58.6168 298.038 60.276 300.862L49.4431 301.258Z" fill="black"/>
<path opacity="0.1" d="M56.9512 303.092C56.9512 303.092 58.3926 301.57 59.8276 302.331C61.2625 303.092 56.9512 303.092 56.9512 303.092Z" fill="black"/>
<path opacity="0.1" d="M38.6038 319.379C38.6981 319.933 38.9255 320.444 39.2585 320.849C39.5915 321.254 40.016 321.536 40.4808 321.662L38.6038 319.379Z" fill="black"/>
<path d="M80.7757 325.543C80.2248 328.237 72.4861 328.496 68.7833 327.773C65.0806 327.05 57.3931 324.424 57.3931 324.424C57.3931 324.424 49.3277 323.511 46.951 322.324C44.5743 321.137 46.4513 318.123 46.4513 318.123V317.841C46.3937 316.745 46.2335 312.757 46.8037 311.684C47.4443 310.444 47.0791 306.357 47.0791 306.357C47.0791 306.357 58.5206 308.982 58.7384 307.734C58.9562 306.486 60.7307 304.69 61.5571 304.317C62.3835 303.944 62.9985 307.605 62.9985 307.605C62.9985 307.605 68.194 312.856 68.5271 314.759C68.8602 316.662 72.5053 317.651 72.5053 317.651C72.5053 317.651 78.0339 319.485 79.4689 320.406C79.8859 320.64 80.2453 320.997 80.5124 321.443C80.7794 321.89 80.9451 322.411 80.9935 322.955C81.0558 323.827 80.9819 324.704 80.7757 325.543V325.543Z" fill="#D0CDE1"/>
<path opacity="0.1" d="M80.7757 325.543C80.2248 328.237 72.4861 328.496 68.7833 327.773C65.0805 327.05 57.3931 324.424 57.3931 324.424C57.3931 324.424 49.3277 323.511 46.951 322.324C44.5743 321.137 46.4513 318.123 46.4513 318.123V317.841L58.0209 320.885C58.0209 320.885 63.716 323.777 67.3611 323.777C70.5642 323.777 77.6815 325.299 80.9935 323.016C81.0495 323.867 80.9757 324.723 80.7757 325.543V325.543Z" fill="black"/>
<path opacity="0.1" d="M65.1317 315.177C65.1317 315.177 64.5807 319.508 62.3706 320.954L65.1317 315.177Z" fill="black"/>
<path opacity="0.1" d="M50.6217 57.2621C50.4168 57.3936 50.2024 57.5031 49.9811 57.5894C48.9433 57.9166 47.9311 57.0871 47.0086 56.425C46.0861 55.7628 44.8177 55.2681 44.0169 56.1281C42.9791 57.2469 43.735 59.6518 42.6652 60.7325C41.9861 61.4175 40.9099 61.1816 40.154 61.7447C39.398 62.3079 39.1738 63.5409 38.9816 64.6063C38.7895 65.6718 38.4115 66.8895 37.5338 67.2015C36.6562 67.5136 35.8362 66.8286 34.9714 66.8667C34.792 66.8667 34.587 66.9047 34.4653 66.7449C34.425 66.6771 34.3963 66.6005 34.3809 66.5196C34.3655 66.4386 34.3637 66.3548 34.3756 66.273C34.4885 64.9953 34.395 63.7038 34.1001 62.4677C33.9439 61.8522 33.6537 61.2966 33.2589 60.857C32.8641 60.4174 32.3787 60.1093 31.8515 59.9639C30.3012 59.6823 28.9944 61.2957 28.0783 62.8178C27.1197 64.4178 26.2467 66.0878 25.4646 67.818C25.4162 67.929 25.3734 68.0434 25.3364 68.1605C24.5754 66.124 24.1847 63.9196 24.1897 61.6915C24.1879 57.8292 25.3606 54.0961 27.492 51.1796C29.6234 48.2631 32.5699 46.3596 35.789 45.8195C39.0081 45.2794 42.2831 46.1391 45.011 48.2402C47.7389 50.3414 49.7359 53.5427 50.6345 57.2545L50.6217 57.2621Z" fill="black"/>
<path d="M28.0656 62.5591C28.9817 61.037 30.2822 59.4311 31.8389 59.7127C32.3641 59.8573 32.8475 60.1655 33.2393 60.6056C33.6311 61.0456 33.9172 61.6017 34.0682 62.2166C34.3681 63.4515 34.4638 64.7437 34.3501 66.0219C34.3258 66.1895 34.358 66.3618 34.4398 66.5014C34.5615 66.6536 34.7665 66.6307 34.9459 66.6231C35.8107 66.6231 36.6755 67.2548 37.5084 66.958C38.3412 66.6612 38.7896 65.4359 38.9626 64.3628C39.1355 63.2897 39.3533 62.0796 40.1349 61.5012C40.9165 60.9228 41.9607 61.1739 42.6461 60.4814C43.7095 59.4007 42.96 57.0033 43.9978 55.877C44.7986 55.0246 46.0734 55.5116 46.9895 56.1738C47.9056 56.8359 48.9114 57.6959 49.962 57.3382C50.3049 57.1904 50.6407 57.0202 50.9678 56.8283C52.6078 56.0672 54.7346 57.3458 56.0927 56.014C56.5836 55.434 56.9352 54.7088 57.1113 53.9134C57.4839 52.8412 57.7359 51.7153 57.8608 50.5648C57.9766 49.4046 57.7078 48.2364 57.1113 47.3074C56.2337 46.0745 54.7538 45.7853 53.6327 44.8644C52.7218 44.0167 51.9654 42.9576 51.4098 41.7517C50.8545 40.5455 50.1235 39.4659 49.2509 38.5629C48.8078 38.1189 48.2706 37.828 47.6978 37.722C47.125 37.6159 46.5388 37.6988 46.003 37.9616C45.6791 38.2292 45.3196 38.4299 44.9395 38.5553C44.5262 38.5635 44.1195 38.4315 43.7672 38.1747C39.9235 36.0285 35.4712 36.4091 31.2687 37.0483C29.5747 37.2133 27.9126 37.6909 26.3424 38.4639C25.5602 38.8588 24.859 39.4494 24.2863 40.1954C23.7137 40.9414 23.2831 41.8252 23.024 42.7867C22.678 44.3089 22.9407 46.006 22.5307 47.5205C22.2488 48.5556 21.6723 49.4384 21.3455 50.4506C20.4551 53.2209 21.5249 56.2651 21.9862 59.18C22.4794 62.3688 22.2296 65.8164 23.3699 68.8302C23.5941 69.4238 23.8439 70.4589 24.4077 70.0707C24.8241 69.7815 25.2277 68.0996 25.4647 67.5744C26.2437 65.8405 27.1123 64.1655 28.0656 62.5591V62.5591Z" fill="#192534"/>
<path opacity="0.1" d="M3.79897 113.885L1.80664 120.628C1.80664 120.628 6.5216 141.466 8.73173 145.842C10.9419 150.218 14.209 155.827 14.209 155.827C17.9014 157.802 22.0077 158.414 25.9964 157.585C32.3385 156.063 50.8332 152.151 50.8332 152.151C51.2703 152.245 51.7207 152.197 52.1368 152.012C52.5529 151.827 52.9192 151.512 53.1971 151.101C54.0043 149.7 58.2067 149 58.2067 149C58.2067 149 63.069 140.629 57.0985 137.097C57.0985 137.097 56.3618 139.023 53.1971 137.706C50.0324 136.389 49.0651 138.756 49.0651 138.756C49.0651 138.756 43.9402 139.982 41.0317 139.517C38.1233 139.053 31.0125 138.901 30.2758 138.201C30.1817 138.104 30.0726 138.031 29.9546 137.985C29.8366 137.939 29.712 137.921 29.5882 137.932C29.4643 137.943 29.3436 137.984 29.2329 138.051C29.1222 138.118 29.0238 138.21 28.9433 138.322C28.0862 137.956 27.2871 137.421 26.5794 136.739C25.99 135.978 25.1828 137.622 25.1828 137.622C25.1828 137.622 24.1514 136.915 24.4461 136.039C24.7408 135.164 23.4852 131.838 23.4852 131.838C23.1528 130.565 23.0782 129.217 23.2674 127.904C23.6325 126.146 21.4224 119.844 21.4224 119.844C21.3943 118.782 21.4935 117.722 21.7171 116.693C22.0886 115.118 18.9176 111.967 18.9176 111.967C18.9176 111.967 15.8234 94.1049 9.26345 99.9727C2.70351 105.84 3.79897 113.885 3.79897 113.885Z" fill="black"/>
<path opacity="0.1" d="M51.2624 142.075C51.1855 142.691 49.5648 145.119 50.1541 145.575C50.7435 146.032 51.7044 145.75 50.7948 147.158C49.8851 148.566 49.9876 150.659 50.577 150.393C51.1663 150.127 52.1273 146.983 52.1273 145.75C51.984 144.483 51.693 143.246 51.2624 142.075V142.075Z" fill="black"/>
<g opacity="0.1">
<path opacity="0.1" d="M34.068 60.6944C33.9125 60.0806 33.6233 59.5264 33.2295 59.088C32.8358 58.6496 32.3515 58.3427 31.8258 58.1982C30.2691 57.9166 28.9687 59.53 28.0526 61.0521C27.0939 62.6521 26.221 64.3221 25.4388 66.0523C25.2018 66.5774 24.7982 68.2518 24.3818 68.541C23.8181 68.9367 23.5682 67.8941 23.344 67.3004C22.2037 64.2942 22.4536 60.839 21.9603 57.6502C21.5613 55.7966 21.2448 53.9192 21.0122 52.026C20.8392 54.3091 21.5951 56.7217 21.9603 59.0506C22.4536 62.2394 22.2037 65.6946 23.344 68.7084C23.5682 69.2944 23.8181 70.3371 24.3818 69.9413C24.7982 69.6521 25.2018 67.9778 25.4388 67.4527C26.221 65.7225 27.0939 64.0524 28.0526 62.4525C28.9687 60.9304 30.2691 59.3169 31.8258 59.5985C32.3515 59.743 32.8358 60.05 33.2295 60.4883C33.6233 60.9267 33.9125 61.4809 34.068 62.0948C34.2476 62.7312 34.349 63.3951 34.3691 64.0659C34.4467 62.9296 34.3446 61.7861 34.068 60.6944V60.6944Z" fill="black"/>
<path opacity="0.1" d="M57.1303 52.4065C56.9542 53.2019 56.6026 53.9271 56.1117 54.507C54.7664 55.8465 52.6395 54.5832 50.9867 55.329C50.6596 55.5184 50.3238 55.6861 49.981 55.8313C48.9432 56.1661 47.931 55.3366 47.0085 54.6745C46.086 54.0124 44.8176 53.5177 44.0168 54.3777C42.979 55.4964 43.7349 57.8938 42.6651 58.9821C41.9796 59.667 40.9098 59.4311 40.1539 59.9943C39.3979 60.5575 39.1737 61.7904 38.9815 62.8559C38.7894 63.9213 38.4114 65.139 37.5273 65.4511C36.6433 65.7631 35.8361 65.0782 34.9649 65.1162C34.7855 65.1162 34.5805 65.1543 34.4588 64.9944C34.4315 64.9559 34.4098 64.9122 34.3947 64.8651C34.3947 65.2152 34.3947 65.5728 34.3947 65.9229C34.3828 66.0047 34.3846 66.0885 34.4 66.1695C34.4154 66.2504 34.4441 66.327 34.4844 66.3948C34.6061 66.5546 34.8111 66.5242 34.9905 66.5166C35.8553 66.5166 36.7202 67.1482 37.553 66.8514C38.3858 66.5546 38.8342 65.3293 39.0072 64.2638C39.1801 63.1983 39.3979 61.9807 40.1795 61.3946C40.961 60.8086 42.0053 61.0674 42.6907 60.3824C43.7606 59.3017 43.0046 56.8968 44.0424 55.8161C44.8432 54.9561 46.118 55.4508 47.0341 56.1129C47.9502 56.775 48.956 57.635 50.0066 57.2773C50.3589 57.1631 50.6472 56.9196 51.0124 56.7674C52.6524 56.0063 54.7792 57.2849 56.1373 55.9455C56.6189 55.3619 56.9615 54.6371 57.1303 53.8449C57.502 52.775 57.754 51.6517 57.8798 50.5039C57.915 50.1143 57.915 49.7214 57.8798 49.3318C57.7326 50.3882 57.481 51.4202 57.1303 52.4065V52.4065Z" fill="black"/>
</g>
<path d="M158.073 47.1857H77.2524C72.3274 47.1857 68.335 51.9287 68.335 57.7796V188.042C68.335 193.893 72.3274 198.636 77.2524 198.636H158.073C162.998 198.636 166.99 193.893 166.99 188.042V57.7796C166.99 51.9287 162.998 47.1857 158.073 47.1857Z" fill="#3CBAB0"/>
<path d="M117.656 165.911C130.747 165.911 141.359 153.304 141.359 137.752C141.359 122.2 130.747 109.593 117.656 109.593C104.565 109.593 93.9531 122.2 93.9531 137.752C93.9531 153.304 104.565 165.911 117.656 165.911Z" fill="#F2F2F2"/>
<path d="M152.877 198.636H82.4478C82.6869 192.285 84.9787 186.288 88.8461 181.893C92.7135 177.498 97.8585 175.045 103.21 175.044H132.115C137.467 175.045 142.612 177.498 146.479 181.893C150.346 186.288 152.638 192.285 152.877 198.636V198.636Z" fill="#F2F2F2"/>
<path d="M56.6372 138.049C56.6372 138.049 65.4073 131.199 69.6482 134.593C73.8891 137.988 80.8142 142.737 73.998 146.192C67.1818 149.647 57.7711 148.977 57.7711 148.977L56.6372 138.049Z" fill="#FEC2BE"/>
<path d="M3.35678 113.885L1.39648 120.628C1.39648 120.628 6.11144 141.466 8.32158 145.842C10.5317 150.218 13.7476 155.827 13.7476 155.827C17.44 157.802 21.5463 158.414 25.535 157.585C31.8771 156.063 50.3718 152.151 50.3718 152.151C50.8089 152.245 51.2593 152.197 51.6754 152.012C52.0915 151.827 52.4578 151.512 52.7357 151.101C53.5429 149.693 57.771 148.977 57.771 148.977C57.771 148.977 62.6333 140.606 56.6627 137.074C56.6627 137.074 55.926 139 52.7613 137.683C49.5967 136.367 48.6293 138.733 48.6293 138.733C48.6293 138.733 43.4724 139.959 40.596 139.495C37.7196 139.03 30.5767 138.878 29.84 138.178C29.6536 137.982 29.4096 137.881 29.1611 137.898C28.9126 137.916 28.6799 138.049 28.5139 138.269C27.6568 137.903 26.8577 137.368 26.15 136.686C25.5606 135.925 24.7535 137.569 24.7535 137.569C24.7535 137.569 23.7221 136.861 24.0167 135.986C24.3114 135.111 23.0558 131.785 23.0558 131.785C22.7234 130.512 22.6488 129.164 22.838 127.85C23.2032 126.092 20.993 119.791 20.993 119.791C20.9649 118.729 21.0642 117.668 21.2877 116.64C21.6593 115.065 18.4882 111.914 18.4882 111.914C18.4882 111.914 15.394 94.0517 8.83407 99.9195C2.27413 105.787 3.35678 113.885 3.35678 113.885Z" fill="#373C3F"/>
<path d="M561.15 320.132C563.072 315.938 560.894 310.794 558.408 307.057C555.923 303.32 552.893 299.446 552.957 294.659C553.046 287.81 559.171 283.769 564.059 280.138C567.684 277.44 571.03 274.244 574.027 270.617C575.279 269.216 576.316 267.565 577.089 265.739C578.101 263.068 578.069 260.016 578.005 257.086C577.796 247.314 577.39 237.549 576.788 227.793" stroke="#3F3D56" stroke-width="4" stroke-miterlimit="10"/>
<path d="M586.083 227.26C586.015 225.471 585.568 223.731 584.785 222.201C584.001 220.672 582.905 219.401 581.599 218.508L579.587 223.241L579.645 217.511C578.685 217.174 577.685 217.033 576.685 217.092C574.916 217.196 573.212 217.921 571.788 219.175C570.365 220.429 569.286 222.155 568.688 224.137C568.09 226.118 567.999 228.266 568.427 230.308C568.855 232.351 569.783 234.197 571.093 235.614C572.404 237.031 574.038 237.955 575.79 238.269C577.542 238.584 579.333 238.274 580.937 237.381C582.542 236.487 583.887 235.049 584.804 233.248C585.721 231.446 586.168 229.363 586.09 227.26H586.083Z" fill="#57B894"/>
<path d="M570.048 299.553C569.155 301.665 567.696 303.364 565.901 304.383C564.106 305.403 562.077 305.684 560.132 305.183C558.188 304.681 556.439 303.426 555.161 301.615C553.883 299.804 553.148 297.539 553.072 295.177C553.008 293.698 553.207 292.22 553.655 290.839C554.299 288.799 555.455 287.043 556.965 285.807C558.476 284.571 560.269 283.915 562.103 283.928C563.937 283.94 565.724 284.62 567.222 285.876C568.721 287.133 569.859 288.904 570.484 290.953L564.866 296.387L571.041 294.682C571.046 296.377 570.705 298.048 570.048 299.553Z" fill="#57B894"/>
<path d="M565.609 278.814C563.374 279.004 561.16 278.194 559.403 276.542C557.646 274.891 556.473 272.518 556.115 269.89C555.757 267.263 556.239 264.571 557.467 262.345C558.696 260.119 560.581 258.52 562.752 257.862L562.707 262.261L564.744 257.474C567.123 257.342 569.448 258.337 571.209 260.242C572.969 262.147 574.021 264.804 574.132 267.63C574.244 270.456 573.406 273.219 571.802 275.31C570.199 277.402 567.962 278.651 565.583 278.784L565.609 278.814Z" fill="#57B894"/>
<path d="M587.435 261.561C586.257 261.627 585.08 261.416 583.971 260.942C582.861 260.467 581.842 259.738 580.969 258.795C580.097 257.853 579.39 256.715 578.888 255.447C578.386 254.18 578.099 252.807 578.044 251.408C577.988 250.009 578.165 248.611 578.565 247.293C578.964 245.975 579.578 244.763 580.372 243.727C581.165 242.691 582.123 241.851 583.19 241.254C584.256 240.658 585.412 240.317 586.59 240.251C588.271 240.152 589.941 240.622 591.407 241.606L589.818 246.773L593.092 243.044C594.843 244.949 595.886 247.601 595.994 250.419C596.038 251.409 595.96 252.401 595.763 253.364C595.315 255.621 594.259 257.642 592.756 259.121C591.253 260.601 589.385 261.457 587.435 261.561V261.561Z" fill="#57B894"/>
<path opacity="0.1" d="M584.872 230.106C582.797 230.38 580.779 231.141 578.697 231.301C576.615 231.461 574.328 230.86 573.008 228.934C572.297 227.899 571.945 226.59 571.349 225.456C570.778 224.407 569.999 223.539 569.081 222.929C568.537 224.277 568.238 225.745 568.203 227.239C568.168 228.733 568.398 230.219 568.878 231.6C569.358 232.981 570.077 234.227 570.989 235.257C571.9 236.287 572.984 237.077 574.17 237.577C575.355 238.076 576.616 238.274 577.87 238.157C579.124 238.041 580.343 237.612 581.449 236.899C582.554 236.185 583.521 235.204 584.286 234.018C585.051 232.832 585.598 231.468 585.891 230.015C585.551 230.038 585.212 230.061 584.872 230.106Z" fill="black"/>
<path opacity="0.1" d="M587.435 261.561C585.884 261.654 584.34 261.268 582.953 260.44C581.565 259.611 580.383 258.369 579.521 256.835C578.659 255.301 578.147 253.527 578.035 251.687C577.923 249.848 578.215 248.005 578.883 246.34C579.598 246.91 580.211 247.642 580.689 248.493C581.33 249.635 581.714 250.967 582.47 252.017C583.873 253.973 586.263 254.62 588.434 254.498C590.606 254.376 592.694 253.646 594.84 253.41C595.142 253.41 595.443 253.357 595.744 253.349C595.299 255.605 594.247 257.627 592.747 259.109C591.248 260.591 589.383 261.451 587.435 261.561Z" fill="black"/>
<path opacity="0.1" d="M565.609 278.814C564.072 278.908 562.541 278.53 561.163 277.718C559.784 276.905 558.605 275.685 557.738 274.175C556.871 272.664 556.346 270.914 556.214 269.093C556.081 267.272 556.345 265.441 556.98 263.776C557.728 264.353 558.38 265.091 558.902 265.952C559.6 267.117 560.036 268.471 560.823 269.552C562.335 271.554 564.885 272.261 567.185 272.2C569.485 272.14 571.554 271.493 573.77 271.287C573.229 273.388 572.155 275.24 570.694 276.587C569.233 277.935 567.457 278.712 565.609 278.814Z" fill="black"/>
<path opacity="0.1" d="M570.048 299.553C569.155 301.665 567.696 303.364 565.901 304.384C564.106 305.403 562.077 305.684 560.132 305.183C558.188 304.681 556.439 303.426 555.161 301.615C553.883 299.804 553.148 297.539 553.072 295.177C553.008 293.698 553.207 292.22 553.655 290.839C554.396 291.417 555.061 292.122 555.628 292.932C556.48 294.172 557.044 295.573 558.037 296.737C559.875 298.876 562.841 299.781 565.481 299.842C567.007 299.853 568.532 299.757 570.048 299.553V299.553Z" fill="black"/>
<path d="M547.595 315.299C547.595 315.299 554.693 315.04 556.826 313.237C558.959 311.433 567.717 309.264 568.274 312.164C568.831 315.063 578.94 326.624 570.926 326.669C562.912 326.715 552.31 325.193 550.176 323.625C548.043 322.057 547.595 315.299 547.595 315.299Z" fill="#656380"/>
<path opacity="0.2" d="M571.073 325.665C563.059 325.741 552.457 324.181 550.317 322.621C548.697 321.441 548.05 317.225 547.832 315.276H547.595C547.595 315.276 548.043 322.08 550.157 323.648C552.271 325.216 562.899 326.753 570.907 326.692C573.219 326.692 574.02 325.695 573.975 324.249C573.674 325.102 572.79 325.65 571.073 325.665Z" fill="black"/>
</g>
<defs>
<clipPath id="clip0">
<rect width="596" height="336" fill="white"/>
</clipPath>
</defs>
</svg>
