<svg width="596" height="336" viewBox="0 0 596 336" fill="none" xmlns="http://www.w3.org/2000/svg">
<g clip-path="url(#clip0)">
<path d="M88.6014 220.34C93.6364 216.13 99.4227 212.996 105.627 211.119C122.991 205.956 140.953 210.954 158.324 215.788C167.702 218.398 177.399 221.096 186.963 222.208C202.288 223.989 216.571 221.503 228.27 215.019C241.417 207.733 250.887 195.192 253.603 181.476C253.945 179.74 254.174 177.982 254.286 176.214C252.991 177.045 251.691 177.863 250.386 178.668C236.664 187.139 217.378 195.059 203.425 184.682C198.068 180.698 194.593 174.042 193.889 166.421C193.136 158.255 195.663 150.113 200.65 144.641C201.463 143.75 202.335 142.919 203.258 142.153C213.366 133.766 229.323 133.314 240.515 141.603C249.994 148.624 255.609 161.309 255.429 174.174C263.533 168.891 271.371 163.178 278.91 157.058L279.565 157.929C271.809 164.225 263.739 170.091 255.389 175.503C255.296 177.586 255.047 179.657 254.644 181.699C251.865 195.733 242.192 208.554 228.77 215.994C216.881 222.584 202.384 225.113 186.844 223.306C177.201 222.186 167.465 219.476 158.049 216.856C140.025 211.84 123 207.102 105.92 212.182C88.7515 217.288 74.8838 232.951 71.41 251.157C67.9349 269.363 75.0018 289.343 88.9944 300.874L88.3337 301.74C74.0369 289.959 66.8167 269.544 70.3667 250.942C72.6611 238.919 79.3924 227.981 88.6014 220.34ZM254.35 174.873C254.752 162.118 249.274 149.448 239.898 142.504C228.102 133.767 210.841 135.068 201.422 145.401C196.644 150.644 194.223 158.463 194.948 166.316C195.623 173.619 198.937 179.985 204.043 183.783C217.53 193.813 236.394 186.021 249.844 177.717C251.352 176.787 252.854 175.839 254.35 174.873Z" fill="#3F3D56"/>
<path d="M148.07 314.446C229.846 314.446 296.139 311.229 296.139 307.261C296.139 303.293 229.846 300.077 148.07 300.077C66.293 300.077 0 303.293 0 307.261C0 311.229 66.293 314.446 148.07 314.446Z" fill="#373C3F"/>
<path d="M142.487 336C171.557 336 195.122 332.783 195.122 328.815C195.122 324.847 171.557 321.631 142.487 321.631C113.417 321.631 89.8519 324.847 89.8519 328.815C89.8519 332.783 113.417 336 142.487 336Z" fill="#373C3F"/>
<path d="M98.6244 156.66V161.081C98.6244 161.081 93.827 184.199 101.283 183.188C113.511 181.53 104.473 162.739 104.473 162.739V158.871L98.6244 156.66Z" fill="#FFB8B8"/>
<path d="M158.171 281.01L162.956 294.826L174.653 290.405L169.336 277.694L158.171 281.01Z" fill="#FFB8B8"/>
<path d="M128.93 294.826L125.74 306.985L137.968 310.854L138.5 298.142L128.93 294.826Z" fill="#FFB8B8"/>
<path d="M118.296 155.554L117.233 161.634C117.233 161.634 116.701 166.055 117.233 168.818C117.765 171.582 156.045 285.984 156.045 285.984L172.526 279.352L151.26 206.952L148.601 151.133L118.296 155.554Z" fill="#373C3F"/>
<path d="M139.031 154.449L136.905 236.244C136.905 236.244 132.12 241.77 133.183 245.639C134.246 249.508 130.525 281.562 130.525 281.562L127.335 297.59L141.158 302.011C141.158 302.011 143.816 287.642 145.943 285.984C148.07 284.326 160.298 234.586 160.298 231.27C160.298 227.954 169.336 154.449 169.336 154.449L147.006 145.054L139.031 154.449Z" fill="#373C3F"/>
<path d="M164.02 285.984C164.02 285.984 158.171 279.352 154.981 285.984C152.591 290.751 149.928 295.365 147.006 299.8C147.006 299.8 129.993 310.301 147.006 313.064C147.006 313.064 156.576 313.617 161.361 310.301C166.146 306.985 178.906 302.011 178.906 300.906C178.906 299.8 175.716 283.552 172.526 285.321C169.336 287.089 164.02 285.984 164.02 285.984Z" fill="#D0CDE1"/>
<path d="M134.778 304.222C134.778 304.222 129.993 297.037 125.74 302.011C121.486 306.985 116.169 321.354 116.169 321.354C116.169 321.354 106.599 336.276 121.486 335.724C136.373 335.171 137.436 329.644 137.436 329.644C137.436 329.644 139.563 315.275 139.563 314.722C139.563 314.17 138.5 308.489 138.5 308.489L134.778 304.222Z" fill="#D0CDE1"/>
<path d="M131.322 40.8763C139.544 40.8763 146.209 33.9481 146.209 25.4016C146.209 16.8552 139.544 9.92699 131.322 9.92699C123.1 9.92699 116.435 16.8552 116.435 25.4016C116.435 33.9481 123.1 40.8763 131.322 40.8763Z" fill="#FFB8B8"/>
<path d="M123.613 35.0733L125.74 52.7586L132.12 69.3386L145.943 52.206V43.916C145.943 43.916 141.69 37.284 142.753 31.7573L123.613 35.0733Z" fill="#FFB8B8"/>
<path d="M131.056 56.6273L123.613 53.3113L115.638 151.133L117.233 157.213C117.233 157.213 121.486 159.976 134.778 157.765C148.07 155.555 169.868 157.213 169.868 157.213L171.463 106.92L145.411 47.7846L131.056 56.6273Z" fill="#D0CDE1"/>
<path d="M117.765 153.344C117.765 153.344 127.866 62.1539 127.335 60.4959C126.803 58.8379 117.765 54.3484 117.765 54.3484C117.765 54.3484 102.346 64.9173 102.878 68.7859C103.409 72.6546 112.98 154.449 112.98 154.449L117.765 153.344Z" fill="#373C3F"/>
<path d="M158.171 146.712C158.171 146.712 142.221 82.0499 141.69 67.6806C141.158 53.3113 141.158 51.6533 141.158 51.6533C141.158 51.6533 165.615 42.8106 174.121 51.6533L175.716 98.0772C175.716 98.0772 178.375 117.973 177.311 124.053C176.579 128.011 175.511 131.895 174.121 135.659C174.121 135.659 179.97 141.738 174.653 143.396C169.336 145.054 165.615 142.291 163.488 145.054C161.361 147.817 158.171 146.712 158.171 146.712Z" fill="#373C3F"/>
<path d="M106.599 65.4699C106.599 65.4699 100.219 65.4699 100.751 73.2073C101.283 80.9446 100.751 116.868 100.751 116.868C100.751 116.868 95.9661 147.265 97.5611 149.475C99.1561 151.686 97.0294 158.871 97.0294 158.871L106.599 161.081C106.599 161.081 107.663 153.344 109.789 152.791C111.916 152.239 115.106 136.211 115.106 136.211L106.599 65.4699Z" fill="#373C3F"/>
<path d="M178.375 133.448L175.933 138.062C175.933 138.062 159.188 151.924 167.452 157.055C175.716 162.187 183.691 143.396 183.691 143.396L186.35 138.422L178.375 133.448Z" fill="#FFB8B8"/>
<path d="M166.678 50.548L174.121 51.6533C174.121 51.6533 182.628 57.7326 183.16 61.0486C183.691 64.3646 200.705 94.7612 200.705 94.7612C201.708 97.0159 202.251 99.4622 202.3 101.946C202.3 105.815 196.451 135.106 193.261 135.659C190.071 136.211 187.945 141.738 187.945 141.738L176.78 134.553C176.815 132.882 176.993 131.218 177.311 129.579C177.843 126.816 179.97 121.289 179.97 121.289L183.16 109.683C182.664 109.297 182.263 108.796 181.986 108.221C181.709 107.645 181.565 107.011 181.565 106.367C181.565 104.157 172.526 92.5506 172.526 92.5506L166.678 50.548Z" fill="#373C3F"/>
<path d="M129.399 62.2697C129.399 62.2697 115.638 58.2853 116.701 55.522C117.765 52.7586 118.828 52.206 118.828 52.206C118.828 52.206 120.423 47.7846 122.018 47.7846C123.613 47.7846 124.978 46.4271 124.978 46.4271L131.056 56.6273L129.399 62.2697Z" fill="#D0CDE1"/>
<path d="M144.356 40.8763C144.356 40.8763 149.665 39.4946 151.791 41.1526C153.918 42.8106 155.513 42.8106 156.045 43.916C156.576 45.0213 163.488 46.1266 161.361 47.7846C159.235 49.4426 131.056 56.6273 131.056 56.6273L144.348 46.6793L144.356 40.8763Z" fill="#D0CDE1"/>
<path d="M146.015 8.9361C143.64 4.92659 139.922 1.972 135.577 0.641011L132.385 3.29499L133.626 0.199433C132.583 0.0339663 131.527 -0.029482 130.472 0.00992615L127.6 3.84766L128.789 0.14138C126.297 0.463252 123.897 1.31829 121.739 2.65258C119.581 3.98687 117.712 5.77147 116.251 7.89384C112.596 13.3717 112.841 20.9863 116.435 26.507C117.422 23.3548 117.758 20.4004 118.745 17.2483C119.521 17.3582 120.307 17.3622 121.083 17.2601L122.284 14.3483L122.619 17.137C126.34 16.7999 131.859 16.0601 135.387 15.3823L135.044 13.243L137.096 15.0207C138.177 14.7621 138.818 14.5276 138.765 14.3483C141.389 18.7448 143.988 21.553 146.612 25.9495C147.608 19.7481 149.366 14.5932 146.015 8.9361Z" fill="#2F2E41"/>
<path d="M145.145 25.4016C145.733 25.4016 146.209 24.4119 146.209 23.191C146.209 21.97 145.733 20.9803 145.145 20.9803C144.558 20.9803 144.082 21.97 144.082 23.191C144.082 24.4119 144.558 25.4016 145.145 25.4016Z" fill="#FFB8B8"/>
<path d="M55.4104 307.113L54.8398 306.891C54.7144 306.841 42.2347 301.871 36.3887 290.601C30.5425 279.331 33.4051 265.762 33.4347 265.626L33.5694 265.008L34.1398 265.231C34.2652 265.28 46.7446 270.25 52.5908 281.52C58.4371 292.79 55.5745 306.359 55.5449 306.495L55.4104 307.113ZM37.3249 290.077C42.2674 299.606 52.1293 304.49 54.6279 305.605C55.103 302.821 56.5929 291.564 51.6547 282.044C46.717 272.526 36.8513 267.634 34.3516 266.516C33.8763 269.302 32.3869 280.558 37.3249 290.077Z" fill="#3F3D56"/>
<path d="M40.8565 286.648C51.3625 293.219 55.4087 306.269 55.4087 306.269C55.4087 306.269 42.4213 308.667 31.9152 302.097C21.4091 295.526 17.3629 282.476 17.3629 282.476C17.3629 282.476 30.3504 280.078 40.8565 286.648Z" fill="#3CBAB0"/>
<path d="M269.556 164.031H512.626C558.672 164.031 596 136.75 596 88.885V88.8848C596 41.0199 558.672 21.0699 512.626 21.0699H436.304C344.212 21.0699 269.556 68.3014 269.556 164.031V164.031Z" fill="#373C3F"/>
<path d="M499.057 152.437H296.761V151.884C296.761 114.289 310.852 83.3155 337.511 62.3118C362.129 42.9161 396.084 32.664 435.705 32.664H499.057C519.263 32.664 536.29 37.2791 548.298 46.0101C561.899 55.8995 568.795 70.5343 568.795 89.5077C568.795 108.577 561.718 124.662 548.33 136.023C535.857 146.608 518.358 152.437 499.057 152.437ZM297.825 151.332H499.057C540.134 151.332 567.732 126.487 567.732 89.5079C567.732 54.0852 542.701 33.7694 499.057 33.7694H435.705C369.191 33.7694 298.128 64.6706 297.825 151.332Z" fill="#3CBAB0"/>
<path d="M401.409 69.6149H372.699V76.7996H401.409V69.6149Z" fill="#3CBAB0"/>
<path d="M500.831 69.6149H490.73V76.7996H500.831V69.6149Z" fill="#3CBAB0"/>
<path d="M521.035 69.6149H510.933V76.7996H521.035V69.6149Z" fill="#3CBAB0"/>
<path d="M480.096 69.6149H411.511V76.7996H480.096V69.6149Z" fill="#3CBAB0"/>
<path d="M365.256 116.039H336.546V123.224H365.256V116.039Z" fill="#3CBAB0"/>
<path d="M464.678 116.039H454.576V123.224H464.678V116.039Z" fill="#3CBAB0"/>
<path d="M484.881 116.039H474.78V123.224H484.881V116.039Z" fill="#3CBAB0"/>
<path d="M443.943 116.039H375.358V123.224H443.943V116.039Z" fill="#3CBAB0"/>
<path d="M483.818 85.6422H455.108V92.8269H483.818V85.6422Z" fill="#3CBAB0"/>
<path d="M522.63 85.6422H493.92V92.8269H522.63V85.6422Z" fill="#3CBAB0"/>
<path d="M542.833 85.6422H532.731V92.8269H542.833V85.6422Z" fill="#3CBAB0"/>
<path d="M346.648 85.6422H336.546V92.8269H346.648V85.6422Z" fill="#3CBAB0"/>
<path d="M366.851 85.6422H356.749V92.8269H366.851V85.6422Z" fill="#3CBAB0"/>
<path d="M445.538 85.6422H376.953V92.8269H445.538V85.6422Z" fill="#3CBAB0"/>
<path d="M395.561 108.302H424.271V101.117H395.561V108.302Z" fill="#3CBAB0"/>
<path d="M356.749 108.302H385.459V101.117H356.749V108.302Z" fill="#3CBAB0"/>
<path d="M336.546 108.302H346.648V101.117H336.546V108.302Z" fill="#3CBAB0"/>
<path d="M532.731 108.302H542.833V101.117H532.731V108.302Z" fill="#3CBAB0"/>
<path d="M512.528 108.302H522.63V101.117H512.528V108.302Z" fill="#3CBAB0"/>
<path d="M433.841 108.302L502.426 108.302V101.117L433.841 101.117V108.302Z" fill="#3CBAB0"/>
<path d="M90.9153 296.761H80.8136V305.051H90.9153V296.761Z" fill="#3CBAB0"/>
<path d="M174.387 321.078H164.285V329.368H174.387V321.078Z" fill="#3CBAB0"/>
</g>
<defs>
<clipPath id="clip0">
<rect width="596" height="336" fill="white"/>
</clipPath>
</defs>
</svg>
